{
	"patcher" : 	{
		"fileversion" : 1,
		"appversion" : 		{
			"major" : 7,
			"minor" : 3,
			"revision" : 4,
			"architecture" : "x86",
			"modernui" : 1
		}
,
		"rect" : [ 34.0, 78.0, 1367.0, 788.0 ],
		"bglocked" : 0,
		"openinpresentation" : 1,
		"default_fontsize" : 12.0,
		"default_fontface" : 0,
		"default_fontname" : "Arial",
		"gridonopen" : 1,
		"gridsize" : [ 15.0, 15.0 ],
		"gridsnaponopen" : 1,
		"objectsnaponopen" : 1,
		"statusbarvisible" : 2,
		"toolbarvisible" : 1,
		"lefttoolbarpinned" : 0,
		"toptoolbarpinned" : 0,
		"righttoolbarpinned" : 0,
		"bottomtoolbarpinned" : 0,
		"toolbars_unpinned_last_save" : 0,
		"tallnewobj" : 0,
		"boxanimatetime" : 200,
		"enablehscroll" : 1,
		"enablevscroll" : 1,
		"devicewidth" : 0.0,
		"description" : "",
		"digest" : "",
		"tags" : "",
		"style" : "",
		"subpatcher_template" : "",
		"boxes" : [ 			{
				"box" : 				{
					"comment" : "",
					"id" : "obj-1",
					"index" : 0,
					"maxclass" : "inlet",
					"numinlets" : 0,
					"numoutlets" : 1,
					"outlettype" : [ "" ],
					"patching_rect" : [ 169.0, 55.0, 30.0, 30.0 ],
					"style" : ""
				}

			}
, 			{
				"box" : 				{
					"fontname" : "Arial",
					"id" : "obj-113",
					"linecount" : 2,
					"maxclass" : "comment",
					"numinlets" : 1,
					"numoutlets" : 0,
					"patching_rect" : [ 261.05249, 336.866699, 50.0, 33.0 ],
					"style" : "",
					"text" : "Default\ntable",
					"textjustification" : 1
				}

			}
, 			{
				"box" : 				{
					"fontname" : "Arial",
					"id" : "obj-76",
					"linecount" : 2,
					"maxclass" : "comment",
					"numinlets" : 1,
					"numoutlets" : 0,
					"patching_rect" : [ 552.635742, 336.866699, 50.0, 33.0 ],
					"style" : "",
					"text" : "Default\ntable",
					"textjustification" : 1
				}

			}
, 			{
				"box" : 				{
					"id" : "obj-77",
					"maxclass" : "comment",
					"numinlets" : 1,
					"numoutlets" : 0,
					"patching_rect" : [ 89.400146, 583.299927, 215.0, 20.0 ],
					"style" : "",
					"text" : "Buffer to lighten the work at each step."
				}

			}
, 			{
				"box" : 				{
					"id" : "obj-79",
					"maxclass" : "number",
					"numinlets" : 1,
					"numoutlets" : 2,
					"outlettype" : [ "", "bang" ],
					"parameter_enable" : 0,
					"patching_rect" : [ 487.55249, 142.0, 50.0, 22.0 ],
					"style" : ""
				}

			}
, 			{
				"box" : 				{
					"id" : "obj-81",
					"maxclass" : "newobj",
					"numinlets" : 1,
					"numoutlets" : 1,
					"outlettype" : [ "bang" ],
					"patching_rect" : [ 487.55249, 100.0, 60.0, 22.0 ],
					"style" : "",
					"text" : "loadbang"
				}

			}
, 			{
				"box" : 				{
					"id" : "obj-83",
					"maxclass" : "comment",
					"numinlets" : 1,
					"numoutlets" : 0,
					"patching_rect" : [ 405.435791, 717.800049, 107.0, 20.0 ],
					"style" : "",
					"text" : "Merge both tables"
				}

			}
, 			{
				"box" : 				{
					"id" : "obj-85",
					"maxclass" : "comment",
					"numinlets" : 1,
					"numoutlets" : 0,
					"patching_rect" : [ 676.05249, 467.200073, 173.0, 20.0 ],
					"style" : "",
					"text" : "Table to detemine current beat"
				}

			}
, 			{
				"box" : 				{
					"id" : "obj-87",
					"linecount" : 2,
					"maxclass" : "comment",
					"numinlets" : 1,
					"numoutlets" : 0,
					"patching_rect" : [ 261.05249, 448.866699, 201.0, 33.0 ],
					"style" : "",
					"text" : "Complete display with unused slots\n(marked as -1)"
				}

			}
, 			{
				"box" : 				{
					"id" : "obj-101",
					"maxclass" : "newobj",
					"numinlets" : 2,
					"numoutlets" : 1,
					"outlettype" : [ "int" ],
					"patching_rect" : [ 565.529541, 270.399902, 33.0, 22.0 ],
					"style" : "",
					"text" : "int 0"
				}

			}
, 			{
				"box" : 				{
					"id" : "obj-89",
					"maxclass" : "message",
					"numinlets" : 2,
					"numoutlets" : 1,
					"outlettype" : [ "" ],
					"patching_rect" : [ 50.0, 554.999878, 389.0, 22.0 ],
					"style" : "",
					"text" : "1 0 0 0 1 0 0 0 1 0 0 0 1 0 0 0 -1 -1 -1 -1 -1 -1 -1 -1 -1 -1 -1 -1 -1 -1 -1 -1"
				}

			}
, 			{
				"box" : 				{
					"id" : "obj-143",
					"maxclass" : "newobj",
					"numinlets" : 1,
					"numoutlets" : 2,
					"outlettype" : [ "", "bang" ],
					"patching_rect" : [ 169.0, 252.400024, 74.037048, 22.0 ],
					"style" : "",
					"text" : "t l b"
				}

			}
, 			{
				"box" : 				{
					"id" : "obj-142",
					"maxclass" : "newobj",
					"numinlets" : 1,
					"numoutlets" : 5,
					"outlettype" : [ "bang", "bang", "bang", "int", "bang" ],
					"patching_rect" : [ 464.710693, 182.0, 153.424927, 22.0 ],
					"style" : "",
					"text" : "t b b b i b"
				}

			}
, 			{
				"box" : 				{
					"id" : "obj-139",
					"maxclass" : "newobj",
					"numinlets" : 1,
					"numoutlets" : 1,
					"outlettype" : [ "" ],
					"patching_rect" : [ 629.585693, 336.866699, 65.0, 22.0 ],
					"style" : "",
					"text" : "append 1"
				}

			}
, 			{
				"box" : 				{
					"id" : "obj-90",
					"maxclass" : "newobj",
					"numinlets" : 1,
					"numoutlets" : 2,
					"outlettype" : [ "bang", "" ],
					"patching_rect" : [ 313.55249, 786.0, 155.133179, 22.0 ],
					"style" : "",
					"text" : "t b l"
				}

			}
, 			{
				"box" : 				{
					"id" : "obj-117",
					"maxclass" : "newobj",
					"numinlets" : 5,
					"numoutlets" : 4,
					"outlettype" : [ "int", "", "", "int" ],
					"patching_rect" : [ 313.55249, 830.466553, 67.0, 22.0 ],
					"style" : "",
					"text" : "counter 31"
				}

			}
, 			{
				"box" : 				{
					"id" : "obj-112",
					"maxclass" : "newobj",
					"numinlets" : 2,
					"numoutlets" : 2,
					"outlettype" : [ "", "" ],
					"patching_rect" : [ 313.55249, 752.966553, 74.883179, 22.0 ],
					"style" : "",
					"text" : "zl group 2"
				}

			}
, 			{
				"box" : 				{
					"id" : "obj-106",
					"maxclass" : "newobj",
					"numinlets" : 2,
					"numoutlets" : 1,
					"outlettype" : [ "" ],
					"patching_rect" : [ 313.55249, 876.266602, 29.5, 22.0 ],
					"style" : "",
					"text" : "join"
				}

			}
, 			{
				"box" : 				{
					"id" : "obj-91",
					"maxclass" : "newobj",
					"numinlets" : 33,
					"numoutlets" : 33,
					"outlettype" : [ "", "", "", "", "", "", "", "", "", "", "", "", "", "", "", "", "", "", "", "", "", "", "", "", "", "", "", "", "", "", "", "", "" ],
					"patching_rect" : [ 313.55249, 916.400024, 515.676514, 22.0 ],
					"style" : "",
					"text" : "route 0 1 2 3 4 5 6 7 8 9 10 11 12 13 14 15 16 17 18 19 20 21 22 23 24 25 26 27 28 29 30 31"
				}

			}
, 			{
				"box" : 				{
					"id" : "obj-136",
					"maxclass" : "newobj",
					"numinlets" : 2,
					"numoutlets" : 2,
					"outlettype" : [ "", "" ],
					"patching_rect" : [ 313.55249, 717.800049, 74.883179, 22.0 ],
					"style" : "",
					"text" : "zl lace"
				}

			}
, 			{
				"box" : 				{
					"id" : "obj-131",
					"maxclass" : "newobj",
					"numinlets" : 2,
					"numoutlets" : 2,
					"outlettype" : [ "", "" ],
					"patching_rect" : [ 529.135742, 467.200073, 119.449951, 22.0 ],
					"style" : "",
					"text" : "zl mth"
				}

			}
, 			{
				"box" : 				{
					"id" : "obj-130",
					"linecount" : 4,
					"maxclass" : "message",
					"numinlets" : 2,
					"numoutlets" : 1,
					"outlettype" : [ "" ],
					"patching_rect" : [ 529.135742, 369.866699, 92.0, 62.0 ],
					"style" : "",
					"text" : "0 0 0 0 0 0 0 0 0 0 0 0 0 0 0 0 0 0 0 0 0 0 0 0 0 0 0 0 0 0 0 0"
				}

			}
, 			{
				"box" : 				{
					"id" : "obj-92",
					"maxclass" : "newobj",
					"numinlets" : 2,
					"numoutlets" : 2,
					"outlettype" : [ "", "" ],
					"patching_rect" : [ 169.0, 487.0, 77.800003, 22.0 ],
					"style" : "",
					"text" : "zl slice 32"
				}

			}
, 			{
				"box" : 				{
					"id" : "obj-94",
					"linecount" : 4,
					"maxclass" : "message",
					"numinlets" : 2,
					"numoutlets" : 1,
					"outlettype" : [ "" ],
					"patching_rect" : [ 224.037109, 369.866699, 125.0, 62.0 ],
					"style" : "",
					"text" : "-1 -1 -1 -1 -1 -1 -1 -1 -1 -1 -1 -1 -1 -1 -1 -1 -1 -1 -1 -1 -1 -1 -1 -1 -1 -1 -1 -1 -1 -1 -1 -1"
				}

			}
, 			{
				"box" : 				{
					"id" : "obj-98",
					"maxclass" : "newobj",
					"numinlets" : 2,
					"numoutlets" : 2,
					"outlettype" : [ "", "" ],
					"patching_rect" : [ 169.0, 448.866699, 74.037048, 22.0 ],
					"style" : "",
					"text" : "zl join"
				}

			}
, 			{
				"box" : 				{
					"comment" : "",
					"id" : "obj-183",
					"index" : 0,
					"maxclass" : "inlet",
					"numinlets" : 0,
					"numoutlets" : 1,
					"outlettype" : [ "" ],
					"patching_rect" : [ 464.710693, 40.0, 30.0, 30.0 ],
					"style" : ""
				}

			}
, 			{
				"box" : 				{
					"bgmode" : 0,
					"border" : 0,
					"clickthrough" : 0,
					"enablehscroll" : 0,
					"enablevscroll" : 0,
					"id" : "obj-99",
					"lockeddragscroll" : 0,
					"maxclass" : "bpatcher",
					"name" : "psk-led.maxpat",
					"numinlets" : 1,
					"numoutlets" : 0,
					"offset" : [ 0.0, 0.0 ],
					"patching_rect" : [ 796.102173, 970.099976, 14.0, 14.0 ],
					"presentation" : 1,
					"presentation_rect" : [ 465.129639, 0.0, 15.0, 34.0 ],
					"viewvisibility" : 1
				}

			}
, 			{
				"box" : 				{
					"bgmode" : 0,
					"border" : 0,
					"clickthrough" : 0,
					"enablehscroll" : 0,
					"enablevscroll" : 0,
					"id" : "obj-102",
					"lockeddragscroll" : 0,
					"maxclass" : "bpatcher",
					"name" : "psk-led.maxpat",
					"numinlets" : 1,
					"numoutlets" : 0,
					"offset" : [ 0.0, 0.0 ],
					"patching_rect" : [ 780.602173, 970.099976, 14.0, 14.0 ],
					"presentation" : 1,
					"presentation_rect" : [ 450.129639, 0.0, 15.0, 34.0 ],
					"viewvisibility" : 1
				}

			}
, 			{
				"box" : 				{
					"bgmode" : 0,
					"border" : 0,
					"clickthrough" : 0,
					"enablehscroll" : 0,
					"enablevscroll" : 0,
					"id" : "obj-103",
					"lockeddragscroll" : 0,
					"maxclass" : "bpatcher",
					"name" : "psk-led.maxpat",
					"numinlets" : 1,
					"numoutlets" : 0,
					"offset" : [ 0.0, 0.0 ],
					"patching_rect" : [ 765.102173, 970.099976, 14.0, 14.0 ],
					"presentation" : 1,
					"presentation_rect" : [ 435.129639, 0.0, 15.0, 34.0 ],
					"viewvisibility" : 1
				}

			}
, 			{
				"box" : 				{
					"bgmode" : 0,
					"border" : 0,
					"clickthrough" : 0,
					"enablehscroll" : 0,
					"enablevscroll" : 0,
					"id" : "obj-66",
					"lockeddragscroll" : 0,
					"maxclass" : "bpatcher",
					"name" : "psk-led.maxpat",
					"numinlets" : 1,
					"numoutlets" : 0,
					"offset" : [ 0.0, 0.0 ],
					"patching_rect" : [ 749.602173, 970.099976, 14.0, 14.0 ],
					"presentation" : 1,
					"presentation_rect" : [ 420.129639, 0.0, 15.0, 34.0 ],
					"viewvisibility" : 1
				}

			}
, 			{
				"box" : 				{
					"bgmode" : 0,
					"border" : 0,
					"clickthrough" : 0,
					"enablehscroll" : 0,
					"enablevscroll" : 0,
					"id" : "obj-65",
					"lockeddragscroll" : 0,
					"maxclass" : "bpatcher",
					"name" : "psk-led.maxpat",
					"numinlets" : 1,
					"numoutlets" : 0,
					"offset" : [ 0.0, 0.0 ],
					"patching_rect" : [ 734.102173, 970.099976, 14.0, 14.0 ],
					"presentation" : 1,
					"presentation_rect" : [ 405.129639, 0.0, 15.0, 34.0 ],
					"viewvisibility" : 1
				}

			}
, 			{
				"box" : 				{
					"bgmode" : 0,
					"border" : 0,
					"clickthrough" : 0,
					"enablehscroll" : 0,
					"enablevscroll" : 0,
					"id" : "obj-104",
					"lockeddragscroll" : 0,
					"maxclass" : "bpatcher",
					"name" : "psk-led.maxpat",
					"numinlets" : 1,
					"numoutlets" : 0,
					"offset" : [ 0.0, 0.0 ],
					"patching_rect" : [ 718.602173, 970.099976, 14.0, 14.0 ],
					"presentation" : 1,
					"presentation_rect" : [ 390.129639, 0.0, 15.0, 34.0 ],
					"viewvisibility" : 1
				}

			}
, 			{
				"box" : 				{
					"bgmode" : 0,
					"border" : 0,
					"clickthrough" : 0,
					"enablehscroll" : 0,
					"enablevscroll" : 0,
					"id" : "obj-107",
					"lockeddragscroll" : 0,
					"maxclass" : "bpatcher",
					"name" : "psk-led.maxpat",
					"numinlets" : 1,
					"numoutlets" : 0,
					"offset" : [ 0.0, 0.0 ],
					"patching_rect" : [ 703.102173, 970.099976, 14.0, 14.0 ],
					"presentation" : 1,
					"presentation_rect" : [ 375.129639, 0.0, 15.0, 34.0 ],
					"viewvisibility" : 1
				}

			}
, 			{
				"box" : 				{
					"bgmode" : 0,
					"border" : 0,
					"clickthrough" : 0,
					"enablehscroll" : 0,
					"enablevscroll" : 0,
					"id" : "obj-110",
					"lockeddragscroll" : 0,
					"maxclass" : "bpatcher",
					"name" : "psk-led.maxpat",
					"numinlets" : 1,
					"numoutlets" : 0,
					"offset" : [ 0.0, 0.0 ],
					"patching_rect" : [ 687.602173, 970.099976, 14.0, 14.0 ],
					"presentation" : 1,
					"presentation_rect" : [ 360.129639, 0.0, 15.0, 34.0 ],
					"viewvisibility" : 1
				}

			}
, 			{
				"box" : 				{
					"bgmode" : 0,
					"border" : 0,
					"clickthrough" : 0,
					"enablehscroll" : 0,
					"enablevscroll" : 0,
					"id" : "obj-116",
					"lockeddragscroll" : 0,
					"maxclass" : "bpatcher",
					"name" : "psk-led.maxpat",
					"numinlets" : 1,
					"numoutlets" : 0,
					"offset" : [ 0.0, 0.0 ],
					"patching_rect" : [ 671.602173, 970.099976, 14.0, 14.0 ],
					"presentation" : 1,
					"presentation_rect" : [ 345.129639, 0.0, 15.0, 34.0 ],
					"viewvisibility" : 1
				}

			}
, 			{
				"box" : 				{
					"bgmode" : 0,
					"border" : 0,
					"clickthrough" : 0,
					"enablehscroll" : 0,
					"enablevscroll" : 0,
					"id" : "obj-118",
					"lockeddragscroll" : 0,
					"maxclass" : "bpatcher",
					"name" : "psk-led.maxpat",
					"numinlets" : 1,
					"numoutlets" : 0,
					"offset" : [ 0.0, 0.0 ],
					"patching_rect" : [ 656.102417, 970.099976, 14.0, 14.0 ],
					"presentation" : 1,
					"presentation_rect" : [ 330.129639, 0.0, 15.0, 34.0 ],
					"viewvisibility" : 1
				}

			}
, 			{
				"box" : 				{
					"bgmode" : 0,
					"border" : 0,
					"clickthrough" : 0,
					"enablehscroll" : 0,
					"enablevscroll" : 0,
					"id" : "obj-121",
					"lockeddragscroll" : 0,
					"maxclass" : "bpatcher",
					"name" : "psk-led.maxpat",
					"numinlets" : 1,
					"numoutlets" : 0,
					"offset" : [ 0.0, 0.0 ],
					"patching_rect" : [ 640.602417, 970.099976, 14.0, 14.0 ],
					"presentation" : 1,
					"presentation_rect" : [ 315.129639, 0.0, 15.0, 34.0 ],
					"viewvisibility" : 1
				}

			}
, 			{
				"box" : 				{
					"bgmode" : 0,
					"border" : 0,
					"clickthrough" : 0,
					"enablehscroll" : 0,
					"enablevscroll" : 0,
					"id" : "obj-47",
					"lockeddragscroll" : 0,
					"maxclass" : "bpatcher",
					"name" : "psk-led.maxpat",
					"numinlets" : 1,
					"numoutlets" : 0,
					"offset" : [ 0.0, 0.0 ],
					"patching_rect" : [ 625.102417, 970.099976, 14.0, 14.0 ],
					"presentation" : 1,
					"presentation_rect" : [ 300.129639, 0.0, 15.0, 34.0 ],
					"viewvisibility" : 1
				}

			}
, 			{
				"box" : 				{
					"bgmode" : 0,
					"border" : 0,
					"clickthrough" : 0,
					"enablehscroll" : 0,
					"enablevscroll" : 0,
					"id" : "obj-122",
					"lockeddragscroll" : 0,
					"maxclass" : "bpatcher",
					"name" : "psk-led.maxpat",
					"numinlets" : 1,
					"numoutlets" : 0,
					"offset" : [ 0.0, 0.0 ],
					"patching_rect" : [ 609.602417, 970.099976, 14.0, 14.0 ],
					"presentation" : 1,
					"presentation_rect" : [ 285.129639, 0.0, 15.0, 34.0 ],
					"viewvisibility" : 1
				}

			}
, 			{
				"box" : 				{
					"bgmode" : 0,
					"border" : 0,
					"clickthrough" : 0,
					"enablehscroll" : 0,
					"enablevscroll" : 0,
					"id" : "obj-41",
					"lockeddragscroll" : 0,
					"maxclass" : "bpatcher",
					"name" : "psk-led.maxpat",
					"numinlets" : 1,
					"numoutlets" : 0,
					"offset" : [ 0.0, 0.0 ],
					"patching_rect" : [ 594.102417, 970.099976, 14.0, 14.0 ],
					"presentation" : 1,
					"presentation_rect" : [ 270.129639, 0.0, 15.0, 34.0 ],
					"viewvisibility" : 1
				}

			}
, 			{
				"box" : 				{
					"bgmode" : 0,
					"border" : 0,
					"clickthrough" : 0,
					"enablehscroll" : 0,
					"enablevscroll" : 0,
					"id" : "obj-123",
					"lockeddragscroll" : 0,
					"maxclass" : "bpatcher",
					"name" : "psk-led.maxpat",
					"numinlets" : 1,
					"numoutlets" : 0,
					"offset" : [ 0.0, 0.0 ],
					"patching_rect" : [ 578.602417, 970.099976, 14.0, 14.0 ],
					"presentation" : 1,
					"presentation_rect" : [ 255.129639, 0.0, 15.0, 34.0 ],
					"viewvisibility" : 1
				}

			}
, 			{
				"box" : 				{
					"bgmode" : 0,
					"border" : 0,
					"clickthrough" : 0,
					"enablehscroll" : 0,
					"enablevscroll" : 0,
					"id" : "obj-124",
					"lockeddragscroll" : 0,
					"maxclass" : "bpatcher",
					"name" : "psk-led.maxpat",
					"numinlets" : 1,
					"numoutlets" : 0,
					"offset" : [ 0.0, 0.0 ],
					"patching_rect" : [ 563.102417, 970.099976, 14.0, 14.0 ],
					"presentation" : 1,
					"presentation_rect" : [ 240.129639, 0.0, 15.0, 34.0 ],
					"viewvisibility" : 1
				}

			}
, 			{
				"box" : 				{
					"bgmode" : 0,
					"border" : 0,
					"clickthrough" : 0,
					"enablehscroll" : 0,
					"enablevscroll" : 0,
					"id" : "obj-125",
					"lockeddragscroll" : 0,
					"maxclass" : "bpatcher",
					"name" : "psk-led.maxpat",
					"numinlets" : 1,
					"numoutlets" : 0,
					"offset" : [ 0.0, 0.0 ],
					"patching_rect" : [ 547.602417, 970.099976, 14.0, 14.0 ],
					"presentation" : 1,
					"presentation_rect" : [ 225.129639, 0.0, 15.0, 34.0 ],
					"viewvisibility" : 1
				}

			}
, 			{
				"box" : 				{
					"bgmode" : 0,
					"border" : 0,
					"clickthrough" : 0,
					"enablehscroll" : 0,
					"enablevscroll" : 0,
					"id" : "obj-126",
					"lockeddragscroll" : 0,
					"maxclass" : "bpatcher",
					"name" : "psk-led.maxpat",
					"numinlets" : 1,
					"numoutlets" : 0,
					"offset" : [ 0.0, 0.0 ],
					"patching_rect" : [ 532.102417, 970.099976, 14.0, 14.0 ],
					"presentation" : 1,
					"presentation_rect" : [ 210.129639, 0.0, 15.0, 34.0 ],
					"viewvisibility" : 1
				}

			}
, 			{
				"box" : 				{
					"bgmode" : 0,
					"border" : 0,
					"clickthrough" : 0,
					"enablehscroll" : 0,
					"enablevscroll" : 0,
					"id" : "obj-34",
					"lockeddragscroll" : 0,
					"maxclass" : "bpatcher",
					"name" : "psk-led.maxpat",
					"numinlets" : 1,
					"numoutlets" : 0,
					"offset" : [ 0.0, 0.0 ],
					"patching_rect" : [ 516.602417, 970.099976, 14.0, 14.0 ],
					"presentation" : 1,
					"presentation_rect" : [ 195.129639, 0.0, 15.0, 34.0 ],
					"viewvisibility" : 1
				}

			}
, 			{
				"box" : 				{
					"bgmode" : 0,
					"border" : 0,
					"clickthrough" : 0,
					"enablehscroll" : 0,
					"enablevscroll" : 0,
					"id" : "obj-127",
					"lockeddragscroll" : 0,
					"maxclass" : "bpatcher",
					"name" : "psk-led.maxpat",
					"numinlets" : 1,
					"numoutlets" : 0,
					"offset" : [ 0.0, 0.0 ],
					"patching_rect" : [ 501.102417, 970.099976, 14.0, 14.0 ],
					"presentation" : 1,
					"presentation_rect" : [ 180.129639, 0.0, 15.0, 34.0 ],
					"viewvisibility" : 1
				}

			}
, 			{
				"box" : 				{
					"bgmode" : 0,
					"border" : 0,
					"clickthrough" : 0,
					"enablehscroll" : 0,
					"enablevscroll" : 0,
					"id" : "obj-128",
					"lockeddragscroll" : 0,
					"maxclass" : "bpatcher",
					"name" : "psk-led.maxpat",
					"numinlets" : 1,
					"numoutlets" : 0,
					"offset" : [ 0.0, 0.0 ],
					"patching_rect" : [ 485.602417, 970.099976, 14.0, 14.0 ],
					"presentation" : 1,
					"presentation_rect" : [ 165.129639, 0.0, 15.0, 34.0 ],
					"viewvisibility" : 1
				}

			}
, 			{
				"box" : 				{
					"bgmode" : 0,
					"border" : 0,
					"clickthrough" : 0,
					"enablehscroll" : 0,
					"enablevscroll" : 0,
					"id" : "obj-29",
					"lockeddragscroll" : 0,
					"maxclass" : "bpatcher",
					"name" : "psk-led.maxpat",
					"numinlets" : 1,
					"numoutlets" : 0,
					"offset" : [ 0.0, 0.0 ],
					"patching_rect" : [ 470.102417, 970.099976, 14.0, 14.0 ],
					"presentation" : 1,
					"presentation_rect" : [ 150.129639, 0.0, 15.0, 34.0 ],
					"viewvisibility" : 1
				}

			}
, 			{
				"box" : 				{
					"bgmode" : 0,
					"border" : 0,
					"clickthrough" : 0,
					"enablehscroll" : 0,
					"enablevscroll" : 0,
					"id" : "obj-28",
					"lockeddragscroll" : 0,
					"maxclass" : "bpatcher",
					"name" : "psk-led.maxpat",
					"numinlets" : 1,
					"numoutlets" : 0,
					"offset" : [ 0.0, 0.0 ],
					"patching_rect" : [ 454.602417, 970.099976, 14.0, 14.0 ],
					"presentation" : 1,
					"presentation_rect" : [ 135.129639, 0.0, 15.0, 34.0 ],
					"viewvisibility" : 1
				}

			}
, 			{
				"box" : 				{
					"bgmode" : 0,
					"border" : 0,
					"clickthrough" : 0,
					"enablehscroll" : 0,
					"enablevscroll" : 0,
					"id" : "obj-27",
					"lockeddragscroll" : 0,
					"maxclass" : "bpatcher",
					"name" : "psk-led.maxpat",
					"numinlets" : 1,
					"numoutlets" : 0,
					"offset" : [ 0.0, 0.0 ],
					"patching_rect" : [ 439.102417, 970.099976, 14.0, 14.0 ],
					"presentation" : 1,
					"presentation_rect" : [ 120.129639, 0.0, 15.0, 34.0 ],
					"viewvisibility" : 1
				}

			}
, 			{
				"box" : 				{
					"bgmode" : 0,
					"border" : 0,
					"clickthrough" : 0,
					"enablehscroll" : 0,
					"enablevscroll" : 0,
					"id" : "obj-26",
					"lockeddragscroll" : 0,
					"maxclass" : "bpatcher",
					"name" : "psk-led.maxpat",
					"numinlets" : 1,
					"numoutlets" : 0,
					"offset" : [ 0.0, 0.0 ],
					"patching_rect" : [ 423.602417, 970.099976, 14.0, 14.0 ],
					"presentation" : 1,
					"presentation_rect" : [ 105.129639, 0.0, 15.0, 34.0 ],
					"viewvisibility" : 1
				}

			}
, 			{
				"box" : 				{
					"bgmode" : 0,
					"border" : 0,
					"clickthrough" : 0,
					"enablehscroll" : 0,
					"enablevscroll" : 0,
					"id" : "obj-129",
					"lockeddragscroll" : 0,
					"maxclass" : "bpatcher",
					"name" : "psk-led.maxpat",
					"numinlets" : 1,
					"numoutlets" : 0,
					"offset" : [ 0.0, 0.0 ],
					"patching_rect" : [ 408.102417, 970.099976, 14.0, 14.0 ],
					"presentation" : 1,
					"presentation_rect" : [ 90.129639, 0.0, 15.0, 34.0 ],
					"viewvisibility" : 1
				}

			}
, 			{
				"box" : 				{
					"bgmode" : 0,
					"border" : 0,
					"clickthrough" : 0,
					"enablehscroll" : 0,
					"enablevscroll" : 0,
					"id" : "obj-132",
					"lockeddragscroll" : 0,
					"maxclass" : "bpatcher",
					"name" : "psk-led.maxpat",
					"numinlets" : 1,
					"numoutlets" : 0,
					"offset" : [ 0.0, 0.0 ],
					"patching_rect" : [ 392.602417, 970.099976, 14.0, 14.0 ],
					"presentation" : 1,
					"presentation_rect" : [ 75.129639, 0.0, 15.0, 34.0 ],
					"viewvisibility" : 1
				}

			}
, 			{
				"box" : 				{
					"bgmode" : 0,
					"border" : 0,
					"clickthrough" : 0,
					"enablehscroll" : 0,
					"enablevscroll" : 0,
					"id" : "obj-133",
					"lockeddragscroll" : 0,
					"maxclass" : "bpatcher",
					"name" : "psk-led.maxpat",
					"numinlets" : 1,
					"numoutlets" : 0,
					"offset" : [ 0.0, 0.0 ],
					"patching_rect" : [ 377.102417, 970.099976, 14.0, 14.0 ],
					"presentation" : 1,
					"presentation_rect" : [ 60.129639, 0.0, 15.0, 34.0 ],
					"viewvisibility" : 1
				}

			}
, 			{
				"box" : 				{
					"bgmode" : 0,
					"border" : 0,
					"clickthrough" : 0,
					"enablehscroll" : 0,
					"enablevscroll" : 0,
					"id" : "obj-21",
					"lockeddragscroll" : 0,
					"maxclass" : "bpatcher",
					"name" : "psk-led.maxpat",
					"numinlets" : 1,
					"numoutlets" : 0,
					"offset" : [ 0.0, 0.0 ],
					"patching_rect" : [ 361.602417, 970.099976, 14.0, 14.0 ],
					"presentation" : 1,
					"presentation_rect" : [ 45.129639, 0.0, 15.0, 34.0 ],
					"viewvisibility" : 1
				}

			}
, 			{
				"box" : 				{
					"bgmode" : 0,
					"border" : 0,
					"clickthrough" : 0,
					"enablehscroll" : 0,
					"enablevscroll" : 0,
					"id" : "obj-134",
					"lockeddragscroll" : 0,
					"maxclass" : "bpatcher",
					"name" : "psk-led.maxpat",
					"numinlets" : 1,
					"numoutlets" : 0,
					"offset" : [ 0.0, 0.0 ],
					"patching_rect" : [ 346.102417, 970.099976, 14.0, 14.0 ],
					"presentation" : 1,
					"presentation_rect" : [ 30.129639, 0.0, 15.0, 34.0 ],
					"viewvisibility" : 1
				}

			}
, 			{
				"box" : 				{
					"bgmode" : 0,
					"border" : 0,
					"clickthrough" : 0,
					"enablehscroll" : 0,
					"enablevscroll" : 0,
					"id" : "obj-135",
					"lockeddragscroll" : 0,
					"maxclass" : "bpatcher",
					"name" : "psk-led.maxpat",
					"numinlets" : 1,
					"numoutlets" : 0,
					"offset" : [ 0.0, 0.0 ],
					"patching_rect" : [ 330.602417, 970.099976, 14.0, 14.0 ],
					"presentation" : 1,
					"presentation_rect" : [ 15.129639, 0.0, 15.0, 34.0 ],
					"viewvisibility" : 1
				}

			}
, 			{
				"box" : 				{
					"bgmode" : 0,
					"border" : 0,
					"clickthrough" : 0,
					"enablehscroll" : 0,
					"enablevscroll" : 0,
					"id" : "obj-137",
					"lockeddragscroll" : 0,
					"maxclass" : "bpatcher",
					"name" : "psk-led.maxpat",
					"numinlets" : 1,
					"numoutlets" : 0,
					"offset" : [ 0.0, 0.0 ],
					"patching_rect" : [ 315.102417, 970.099976, 14.0, 14.0 ],
					"presentation" : 1,
					"presentation_rect" : [ 0.0, 0.0, 15.0, 34.0 ],
					"viewvisibility" : 1
				}

			}
 ],
		"lines" : [ 			{
				"patchline" : 				{
					"destination" : [ "obj-143", 0 ],
					"source" : [ "obj-1", 0 ]
				}

			}
, 			{
				"patchline" : 				{
					"color" : [ 0.047252, 0.108491, 0.650753, 1.0 ],
					"destination" : [ "obj-139", 0 ],
					"source" : [ "obj-101", 0 ]
				}

			}
, 			{
				"patchline" : 				{
					"destination" : [ "obj-91", 0 ],
					"source" : [ "obj-106", 0 ]
				}

			}
, 			{
				"patchline" : 				{
					"destination" : [ "obj-90", 0 ],
					"source" : [ "obj-112", 0 ]
				}

			}
, 			{
				"patchline" : 				{
					"destination" : [ "obj-106", 0 ],
					"source" : [ "obj-117", 0 ]
				}

			}
, 			{
				"patchline" : 				{
					"color" : [ 0.047252, 0.108491, 0.650753, 1.0 ],
					"destination" : [ "obj-131", 0 ],
					"source" : [ "obj-130", 0 ]
				}

			}
, 			{
				"patchline" : 				{
					"color" : [ 0.047252, 0.108491, 0.650753, 1.0 ],
					"destination" : [ "obj-136", 1 ],
					"source" : [ "obj-131", 1 ]
				}

			}
, 			{
				"patchline" : 				{
					"destination" : [ "obj-112", 0 ],
					"source" : [ "obj-136", 0 ]
				}

			}
, 			{
				"patchline" : 				{
					"color" : [ 0.047252, 0.108491, 0.650753, 1.0 ],
					"destination" : [ "obj-131", 1 ],
					"source" : [ "obj-139", 0 ]
				}

			}
, 			{
				"patchline" : 				{
					"color" : [ 0.047252, 0.108491, 0.650753, 1.0 ],
					"destination" : [ "obj-101", 0 ],
					"source" : [ "obj-142", 3 ]
				}

			}
, 			{
				"patchline" : 				{
					"color" : [ 0.047252, 0.108491, 0.650753, 1.0 ],
					"destination" : [ "obj-117", 2 ],
					"midpoints" : [ 608.63562, 287.0, 608.552368, 287.0, 608.552368, 815.800049, 401.552368, 815.800049, 401.552368, 815.199951, 347.05249, 815.199951 ],
					"source" : [ "obj-142", 4 ]
				}

			}
, 			{
				"patchline" : 				{
					"color" : [ 0.047252, 0.108491, 0.650753, 1.0 ],
					"destination" : [ "obj-130", 0 ],
					"source" : [ "obj-142", 2 ]
				}

			}
, 			{
				"patchline" : 				{
					"color" : [ 0.047252, 0.108491, 0.650753, 1.0 ],
					"destination" : [ "obj-89", 0 ],
					"midpoints" : [ 474.210693, 317.5, 59.5, 317.5 ],
					"source" : [ "obj-142", 0 ]
				}

			}
, 			{
				"patchline" : 				{
					"color" : [ 0.708171, 0.218134, 0.0, 1.0 ],
					"destination" : [ "obj-94", 0 ],
					"source" : [ "obj-143", 1 ]
				}

			}
, 			{
				"patchline" : 				{
					"color" : [ 0.708171, 0.218134, 0.0, 1.0 ],
					"destination" : [ "obj-98", 0 ],
					"source" : [ "obj-143", 0 ]
				}

			}
, 			{
				"patchline" : 				{
					"destination" : [ "obj-142", 0 ],
					"source" : [ "obj-183", 0 ]
				}

			}
, 			{
				"patchline" : 				{
					"destination" : [ "obj-142", 0 ],
					"source" : [ "obj-79", 0 ]
				}

			}
, 			{
				"patchline" : 				{
					"destination" : [ "obj-79", 0 ],
					"source" : [ "obj-81", 0 ]
				}

			}
, 			{
				"patchline" : 				{
					"color" : [ 0.708171, 0.218134, 0.0, 1.0 ],
					"destination" : [ "obj-136", 0 ],
					"source" : [ "obj-89", 0 ]
				}

			}
, 			{
				"patchline" : 				{
					"destination" : [ "obj-106", 1 ],
					"midpoints" : [ 459.185669, 862.0, 333.55249, 862.0 ],
					"source" : [ "obj-90", 1 ]
				}

			}
, 			{
				"patchline" : 				{
					"destination" : [ "obj-117", 0 ],
					"source" : [ "obj-90", 0 ]
				}

			}
, 			{
				"patchline" : 				{
					"destination" : [ "obj-102", 0 ],
					"source" : [ "obj-91", 30 ]
				}

			}
, 			{
				"patchline" : 				{
					"destination" : [ "obj-103", 0 ],
					"source" : [ "obj-91", 29 ]
				}

			}
, 			{
				"patchline" : 				{
					"destination" : [ "obj-104", 0 ],
					"source" : [ "obj-91", 26 ]
				}

			}
, 			{
				"patchline" : 				{
					"destination" : [ "obj-107", 0 ],
					"source" : [ "obj-91", 25 ]
				}

			}
, 			{
				"patchline" : 				{
					"destination" : [ "obj-110", 0 ],
					"source" : [ "obj-91", 24 ]
				}

			}
, 			{
				"patchline" : 				{
					"destination" : [ "obj-116", 0 ],
					"source" : [ "obj-91", 23 ]
				}

			}
, 			{
				"patchline" : 				{
					"destination" : [ "obj-118", 0 ],
					"source" : [ "obj-91", 22 ]
				}

			}
, 			{
				"patchline" : 				{
					"destination" : [ "obj-121", 0 ],
					"source" : [ "obj-91", 21 ]
				}

			}
, 			{
				"patchline" : 				{
					"destination" : [ "obj-122", 0 ],
					"source" : [ "obj-91", 19 ]
				}

			}
, 			{
				"patchline" : 				{
					"destination" : [ "obj-123", 0 ],
					"source" : [ "obj-91", 17 ]
				}

			}
, 			{
				"patchline" : 				{
					"destination" : [ "obj-124", 0 ],
					"source" : [ "obj-91", 16 ]
				}

			}
, 			{
				"patchline" : 				{
					"destination" : [ "obj-125", 0 ],
					"source" : [ "obj-91", 15 ]
				}

			}
, 			{
				"patchline" : 				{
					"destination" : [ "obj-126", 0 ],
					"source" : [ "obj-91", 14 ]
				}

			}
, 			{
				"patchline" : 				{
					"destination" : [ "obj-127", 0 ],
					"source" : [ "obj-91", 12 ]
				}

			}
, 			{
				"patchline" : 				{
					"destination" : [ "obj-128", 0 ],
					"source" : [ "obj-91", 11 ]
				}

			}
, 			{
				"patchline" : 				{
					"destination" : [ "obj-129", 0 ],
					"source" : [ "obj-91", 6 ]
				}

			}
, 			{
				"patchline" : 				{
					"destination" : [ "obj-132", 0 ],
					"source" : [ "obj-91", 5 ]
				}

			}
, 			{
				"patchline" : 				{
					"destination" : [ "obj-133", 0 ],
					"source" : [ "obj-91", 4 ]
				}

			}
, 			{
				"patchline" : 				{
					"destination" : [ "obj-134", 0 ],
					"source" : [ "obj-91", 2 ]
				}

			}
, 			{
				"patchline" : 				{
					"destination" : [ "obj-135", 0 ],
					"source" : [ "obj-91", 1 ]
				}

			}
, 			{
				"patchline" : 				{
					"destination" : [ "obj-137", 0 ],
					"source" : [ "obj-91", 0 ]
				}

			}
, 			{
				"patchline" : 				{
					"destination" : [ "obj-21", 0 ],
					"source" : [ "obj-91", 3 ]
				}

			}
, 			{
				"patchline" : 				{
					"destination" : [ "obj-26", 0 ],
					"source" : [ "obj-91", 7 ]
				}

			}
, 			{
				"patchline" : 				{
					"destination" : [ "obj-27", 0 ],
					"source" : [ "obj-91", 8 ]
				}

			}
, 			{
				"patchline" : 				{
					"destination" : [ "obj-28", 0 ],
					"source" : [ "obj-91", 9 ]
				}

			}
, 			{
				"patchline" : 				{
					"destination" : [ "obj-29", 0 ],
					"source" : [ "obj-91", 10 ]
				}

			}
, 			{
				"patchline" : 				{
					"destination" : [ "obj-34", 0 ],
					"source" : [ "obj-91", 13 ]
				}

			}
, 			{
				"patchline" : 				{
					"destination" : [ "obj-41", 0 ],
					"source" : [ "obj-91", 18 ]
				}

			}
, 			{
				"patchline" : 				{
					"destination" : [ "obj-47", 0 ],
					"source" : [ "obj-91", 20 ]
				}

			}
, 			{
				"patchline" : 				{
					"destination" : [ "obj-65", 0 ],
					"source" : [ "obj-91", 27 ]
				}

			}
, 			{
				"patchline" : 				{
					"destination" : [ "obj-66", 0 ],
					"source" : [ "obj-91", 28 ]
				}

			}
, 			{
				"patchline" : 				{
					"destination" : [ "obj-99", 0 ],
					"source" : [ "obj-91", 31 ]
				}

			}
, 			{
				"patchline" : 				{
					"color" : [ 0.708171, 0.218134, 0.0, 1.0 ],
					"destination" : [ "obj-136", 0 ],
					"midpoints" : [ 178.5, 519.0, 323.05249, 519.0 ],
					"order" : 1,
					"source" : [ "obj-92", 0 ]
				}

			}
, 			{
				"patchline" : 				{
					"color" : [ 0.708171, 0.218134, 0.0, 1.0 ],
					"destination" : [ "obj-89", 1 ],
					"order" : 0,
					"source" : [ "obj-92", 0 ]
				}

			}
, 			{
				"patchline" : 				{
					"color" : [ 0.708171, 0.218134, 0.0, 1.0 ],
					"destination" : [ "obj-98", 1 ],
					"source" : [ "obj-94", 0 ]
				}

			}
, 			{
				"patchline" : 				{
					"color" : [ 0.708171, 0.218134, 0.0, 1.0 ],
					"destination" : [ "obj-92", 0 ],
					"source" : [ "obj-98", 0 ]
				}

			}
 ],
		"dependency_cache" : [ 			{
				"name" : "psk-led.maxpat",
				"bootpath" : "./Max for Live Devices/Euclidiator 1.0b2 - Euclidean Arpeggiator Project/patchers",
				"patcherrelativepath" : ".",
				"type" : "JSON",
				"implicit" : 1
			}
 ],
		"autosave" : 0
	}

}
