{
	"patcher" : 	{
		"fileversion" : 1,
		"appversion" : 		{
			"major" : 8,
			"minor" : 1,
			"revision" : 0,
			"architecture" : "x64",
			"modernui" : 1
		}
,
		"classnamespace" : "box",
		"rect" : [ 59.0, 104.0, 780.0, 620.0 ],
		"bglocked" : 0,
		"openinpresentation" : 0,
		"default_fontsize" : 12.0,
		"default_fontface" : 0,
		"default_fontname" : "Arial",
		"gridonopen" : 1,
		"gridsize" : [ 15.0, 15.0 ],
		"gridsnaponopen" : 1,
		"objectsnaponopen" : 1,
		"statusbarvisible" : 2,
		"toolbarvisible" : 1,
		"lefttoolbarpinned" : 0,
		"toptoolbarpinned" : 0,
		"righttoolbarpinned" : 0,
		"bottomtoolbarpinned" : 0,
		"toolbars_unpinned_last_save" : 0,
		"tallnewobj" : 0,
		"boxanimatetime" : 200,
		"enablehscroll" : 1,
		"enablevscroll" : 1,
		"devicewidth" : 0.0,
		"description" : "",
		"digest" : "",
		"tags" : "",
		"style" : "",
		"subpatcher_template" : "",
		"boxes" : [ 			{
				"box" : 				{
					"id" : "obj-2",
					"maxclass" : "newobj",
					"numinlets" : 8,
					"numoutlets" : 1,
					"outlettype" : [ "" ],
					"patching_rect" : [ 26.0, 392.0, 108.0, 22.0 ],
					"text" : "pak 0 0 0 0 0 0 0 0"
				}

			}
, 			{
				"box" : 				{
					"comment" : "",
					"id" : "obj-1",
					"index" : 1,
					"maxclass" : "outlet",
					"numinlets" : 1,
					"numoutlets" : 0,
					"patching_rect" : [ 26.0, 428.0, 30.0, 30.0 ]
				}

			}
, 			{
				"box" : 				{
					"id" : "obj-444",
					"maxclass" : "newobj",
					"numinlets" : 2,
					"numoutlets" : 5,
					"outlettype" : [ "", "", "", "", "" ],
					"patching_rect" : [ 1052.392857411078012, 249.666661202907562, 61.0, 22.0 ],
					"text" : "gate 5"
				}

			}
, 			{
				"box" : 				{
					"id" : "obj-445",
					"maxclass" : "newobj",
					"numinlets" : 2,
					"numoutlets" : 5,
					"outlettype" : [ "", "", "", "", "" ],
					"patching_rect" : [ 984.726190664938485, 249.666661202907562, 61.0, 22.0 ],
					"text" : "gate 5"
				}

			}
, 			{
				"box" : 				{
					"id" : "obj-446",
					"maxclass" : "newobj",
					"numinlets" : 2,
					"numoutlets" : 5,
					"outlettype" : [ "", "", "", "", "" ],
					"patching_rect" : [ 917.392857291868722, 249.666661202907562, 61.0, 22.0 ],
					"text" : "gate 5"
				}

			}
, 			{
				"box" : 				{
					"id" : "obj-447",
					"maxclass" : "newobj",
					"numinlets" : 2,
					"numoutlets" : 5,
					"outlettype" : [ "", "", "", "", "" ],
					"patching_rect" : [ 850.720238293920261, 249.666661202907562, 61.0, 22.0 ],
					"text" : "gate 5"
				}

			}
, 			{
				"box" : 				{
					"id" : "obj-448",
					"maxclass" : "newobj",
					"numinlets" : 2,
					"numoutlets" : 5,
					"outlettype" : [ "", "", "", "", "" ],
					"patching_rect" : [ 783.047619146960187, 249.666661202907562, 61.0, 22.0 ],
					"text" : "gate 5"
				}

			}
, 			{
				"box" : 				{
					"id" : "obj-449",
					"maxclass" : "newobj",
					"numinlets" : 2,
					"numoutlets" : 5,
					"outlettype" : [ "", "", "", "", "" ],
					"patching_rect" : [ 714.833333373069763, 249.666661202907562, 61.0, 22.0 ],
					"text" : "gate 5"
				}

			}
, 			{
				"box" : 				{
					"format" : 6,
					"id" : "obj-450",
					"maxclass" : "flonum",
					"numinlets" : 1,
					"numoutlets" : 2,
					"outlettype" : [ "", "bang" ],
					"parameter_enable" : 0,
					"patching_rect" : [ 648.0, 206.666661202907562, 50.0, 22.0 ]
				}

			}
, 			{
				"box" : 				{
					"id" : "obj-451",
					"maxclass" : "newobj",
					"numinlets" : 6,
					"numoutlets" : 1,
					"outlettype" : [ "" ],
					"patching_rect" : [ 467.0, 296.999987959861755, 90.0, 22.0 ],
					"text" : "scale 0 125 0 5"
				}

			}
, 			{
				"box" : 				{
					"id" : "obj-452",
					"maxclass" : "number",
					"numinlets" : 1,
					"numoutlets" : 2,
					"outlettype" : [ "", "bang" ],
					"parameter_enable" : 0,
					"patching_rect" : [ 404.392857411078012, 197.666661202907562, 50.0, 22.0 ]
				}

			}
, 			{
				"box" : 				{
					"id" : "obj-453",
					"maxclass" : "newobj",
					"numinlets" : 1,
					"numoutlets" : 2,
					"outlettype" : [ "int", "int" ],
					"patching_rect" : [ 404.392857411078012, 167.666660308837891, 40.0, 22.0 ],
					"text" : "ctlin 7"
				}

			}
, 			{
				"box" : 				{
					"id" : "obj-454",
					"maxclass" : "newobj",
					"numinlets" : 2,
					"numoutlets" : 5,
					"outlettype" : [ "", "", "", "", "" ],
					"patching_rect" : [ 648.0, 249.666661202907562, 61.0, 22.0 ],
					"text" : "gate 5"
				}

			}
, 			{
				"box" : 				{
					"id" : "obj-455",
					"maxclass" : "number",
					"numinlets" : 1,
					"numoutlets" : 2,
					"outlettype" : [ "", "bang" ],
					"parameter_enable" : 0,
					"patching_rect" : [ 336.726190664938485, 197.666661202907562, 50.0, 22.0 ]
				}

			}
, 			{
				"box" : 				{
					"id" : "obj-456",
					"maxclass" : "newobj",
					"numinlets" : 1,
					"numoutlets" : 2,
					"outlettype" : [ "int", "int" ],
					"patching_rect" : [ 336.726190664938485, 167.666660308837891, 40.0, 22.0 ],
					"text" : "ctlin 6"
				}

			}
, 			{
				"box" : 				{
					"id" : "obj-457",
					"maxclass" : "number",
					"numinlets" : 1,
					"numoutlets" : 2,
					"outlettype" : [ "", "bang" ],
					"parameter_enable" : 0,
					"patching_rect" : [ 269.392857291868722, 197.666661202907562, 50.0, 22.0 ]
				}

			}
, 			{
				"box" : 				{
					"id" : "obj-458",
					"maxclass" : "newobj",
					"numinlets" : 1,
					"numoutlets" : 2,
					"outlettype" : [ "int", "int" ],
					"patching_rect" : [ 269.392857291868722, 167.666660308837891, 40.0, 22.0 ],
					"text" : "ctlin 5"
				}

			}
, 			{
				"box" : 				{
					"id" : "obj-459",
					"maxclass" : "number",
					"numinlets" : 1,
					"numoutlets" : 2,
					"outlettype" : [ "", "bang" ],
					"parameter_enable" : 0,
					"patching_rect" : [ 202.720238293920261, 197.666661202907562, 50.0, 22.0 ]
				}

			}
, 			{
				"box" : 				{
					"id" : "obj-460",
					"maxclass" : "newobj",
					"numinlets" : 1,
					"numoutlets" : 2,
					"outlettype" : [ "int", "int" ],
					"patching_rect" : [ 202.720238293920261, 167.666660308837891, 40.0, 22.0 ],
					"text" : "ctlin 4"
				}

			}
, 			{
				"box" : 				{
					"id" : "obj-461",
					"maxclass" : "number",
					"numinlets" : 1,
					"numoutlets" : 2,
					"outlettype" : [ "", "bang" ],
					"parameter_enable" : 0,
					"patching_rect" : [ 135.047619146960187, 197.666661202907562, 50.0, 22.0 ]
				}

			}
, 			{
				"box" : 				{
					"id" : "obj-462",
					"maxclass" : "newobj",
					"numinlets" : 1,
					"numoutlets" : 2,
					"outlettype" : [ "int", "int" ],
					"patching_rect" : [ 135.047619146960187, 167.666660308837891, 40.0, 22.0 ],
					"text" : "ctlin 3"
				}

			}
, 			{
				"box" : 				{
					"id" : "obj-463",
					"maxclass" : "number",
					"numinlets" : 1,
					"numoutlets" : 2,
					"outlettype" : [ "", "bang" ],
					"parameter_enable" : 0,
					"patching_rect" : [ 66.833333373069763, 197.666661202907562, 50.0, 22.0 ]
				}

			}
, 			{
				"box" : 				{
					"id" : "obj-464",
					"maxclass" : "newobj",
					"numinlets" : 1,
					"numoutlets" : 2,
					"outlettype" : [ "int", "int" ],
					"patching_rect" : [ 66.833333373069763, 167.666660308837891, 40.0, 22.0 ],
					"text" : "ctlin 2"
				}

			}
, 			{
				"box" : 				{
					"id" : "obj-465",
					"maxclass" : "number",
					"numinlets" : 1,
					"numoutlets" : 2,
					"outlettype" : [ "", "bang" ],
					"parameter_enable" : 0,
					"patching_rect" : [ 0.0, 197.666661202907562, 50.0, 22.0 ]
				}

			}
, 			{
				"box" : 				{
					"id" : "obj-466",
					"maxclass" : "newobj",
					"numinlets" : 1,
					"numoutlets" : 2,
					"outlettype" : [ "int", "int" ],
					"patching_rect" : [ 0.0, 167.666660308837891, 40.0, 22.0 ],
					"text" : "ctlin 1"
				}

			}
, 			{
				"box" : 				{
					"format" : 6,
					"id" : "obj-467",
					"maxclass" : "flonum",
					"numinlets" : 1,
					"numoutlets" : 2,
					"outlettype" : [ "", "bang" ],
					"parameter_enable" : 0,
					"patching_rect" : [ 467.0, 257.666660308837891, 50.0, 22.0 ]
				}

			}
, 			{
				"box" : 				{
					"id" : "obj-468",
					"maxclass" : "newobj",
					"numinlets" : 2,
					"numoutlets" : 1,
					"outlettype" : [ "" ],
					"patching_rect" : [ 467.0, 227.666660308837891, 56.0, 22.0 ],
					"text" : "round 25"
				}

			}
, 			{
				"box" : 				{
					"id" : "obj-469",
					"maxclass" : "number",
					"numinlets" : 1,
					"numoutlets" : 2,
					"outlettype" : [ "", "bang" ],
					"parameter_enable" : 0,
					"patching_rect" : [ 467.0, 197.666660308837891, 50.0, 22.0 ]
				}

			}
, 			{
				"box" : 				{
					"id" : "obj-470",
					"maxclass" : "newobj",
					"numinlets" : 1,
					"numoutlets" : 2,
					"outlettype" : [ "int", "int" ],
					"patching_rect" : [ 467.0, 167.666660308837891, 40.0, 22.0 ],
					"text" : "ctlin 8"
				}

			}
 ],
		"lines" : [ 			{
				"patchline" : 				{
					"destination" : [ "obj-1", 0 ],
					"source" : [ "obj-2", 0 ]
				}

			}
, 			{
				"patchline" : 				{
					"destination" : [ "obj-444", 0 ],
					"order" : 0,
					"source" : [ "obj-450", 0 ]
				}

			}
, 			{
				"patchline" : 				{
					"destination" : [ "obj-445", 0 ],
					"order" : 1,
					"source" : [ "obj-450", 0 ]
				}

			}
, 			{
				"patchline" : 				{
					"destination" : [ "obj-446", 0 ],
					"order" : 2,
					"source" : [ "obj-450", 0 ]
				}

			}
, 			{
				"patchline" : 				{
					"destination" : [ "obj-447", 0 ],
					"order" : 3,
					"source" : [ "obj-450", 0 ]
				}

			}
, 			{
				"patchline" : 				{
					"destination" : [ "obj-448", 0 ],
					"order" : 4,
					"source" : [ "obj-450", 0 ]
				}

			}
, 			{
				"patchline" : 				{
					"destination" : [ "obj-449", 0 ],
					"order" : 5,
					"source" : [ "obj-450", 0 ]
				}

			}
, 			{
				"patchline" : 				{
					"destination" : [ "obj-454", 0 ],
					"order" : 6,
					"source" : [ "obj-450", 0 ]
				}

			}
, 			{
				"patchline" : 				{
					"destination" : [ "obj-450", 0 ],
					"source" : [ "obj-451", 0 ]
				}

			}
, 			{
				"patchline" : 				{
					"destination" : [ "obj-2", 6 ],
					"order" : 1,
					"source" : [ "obj-452", 0 ]
				}

			}
, 			{
				"patchline" : 				{
					"destination" : [ "obj-444", 1 ],
					"order" : 0,
					"source" : [ "obj-452", 0 ]
				}

			}
, 			{
				"patchline" : 				{
					"destination" : [ "obj-452", 0 ],
					"source" : [ "obj-453", 0 ]
				}

			}
, 			{
				"patchline" : 				{
					"destination" : [ "obj-2", 5 ],
					"order" : 1,
					"source" : [ "obj-455", 0 ]
				}

			}
, 			{
				"patchline" : 				{
					"destination" : [ "obj-445", 1 ],
					"order" : 0,
					"source" : [ "obj-455", 0 ]
				}

			}
, 			{
				"patchline" : 				{
					"destination" : [ "obj-455", 0 ],
					"source" : [ "obj-456", 0 ]
				}

			}
, 			{
				"patchline" : 				{
					"destination" : [ "obj-2", 4 ],
					"order" : 1,
					"source" : [ "obj-457", 0 ]
				}

			}
, 			{
				"patchline" : 				{
					"destination" : [ "obj-446", 1 ],
					"order" : 0,
					"source" : [ "obj-457", 0 ]
				}

			}
, 			{
				"patchline" : 				{
					"destination" : [ "obj-457", 0 ],
					"source" : [ "obj-458", 0 ]
				}

			}
, 			{
				"patchline" : 				{
					"destination" : [ "obj-2", 3 ],
					"order" : 1,
					"source" : [ "obj-459", 0 ]
				}

			}
, 			{
				"patchline" : 				{
					"destination" : [ "obj-447", 1 ],
					"order" : 0,
					"source" : [ "obj-459", 0 ]
				}

			}
, 			{
				"patchline" : 				{
					"destination" : [ "obj-459", 0 ],
					"source" : [ "obj-460", 0 ]
				}

			}
, 			{
				"patchline" : 				{
					"destination" : [ "obj-2", 2 ],
					"order" : 1,
					"source" : [ "obj-461", 0 ]
				}

			}
, 			{
				"patchline" : 				{
					"destination" : [ "obj-448", 1 ],
					"order" : 0,
					"source" : [ "obj-461", 0 ]
				}

			}
, 			{
				"patchline" : 				{
					"destination" : [ "obj-461", 0 ],
					"source" : [ "obj-462", 0 ]
				}

			}
, 			{
				"patchline" : 				{
					"destination" : [ "obj-2", 1 ],
					"order" : 1,
					"source" : [ "obj-463", 0 ]
				}

			}
, 			{
				"patchline" : 				{
					"destination" : [ "obj-449", 1 ],
					"order" : 0,
					"source" : [ "obj-463", 0 ]
				}

			}
, 			{
				"patchline" : 				{
					"destination" : [ "obj-463", 0 ],
					"source" : [ "obj-464", 0 ]
				}

			}
, 			{
				"patchline" : 				{
					"destination" : [ "obj-2", 0 ],
					"order" : 1,
					"source" : [ "obj-465", 0 ]
				}

			}
, 			{
				"patchline" : 				{
					"destination" : [ "obj-454", 1 ],
					"order" : 0,
					"source" : [ "obj-465", 0 ]
				}

			}
, 			{
				"patchline" : 				{
					"destination" : [ "obj-465", 0 ],
					"source" : [ "obj-466", 0 ]
				}

			}
, 			{
				"patchline" : 				{
					"destination" : [ "obj-451", 0 ],
					"source" : [ "obj-467", 0 ]
				}

			}
, 			{
				"patchline" : 				{
					"destination" : [ "obj-467", 0 ],
					"source" : [ "obj-468", 0 ]
				}

			}
, 			{
				"patchline" : 				{
					"destination" : [ "obj-2", 7 ],
					"order" : 1,
					"source" : [ "obj-469", 0 ]
				}

			}
, 			{
				"patchline" : 				{
					"destination" : [ "obj-468", 0 ],
					"order" : 0,
					"source" : [ "obj-469", 0 ]
				}

			}
, 			{
				"patchline" : 				{
					"destination" : [ "obj-469", 0 ],
					"source" : [ "obj-470", 0 ]
				}

			}
 ],
		"styles" : [ 			{
				"name" : "messageGreen-1",
				"default" : 				{
					"bgfillcolor" : 					{
						"type" : "gradient",
						"color" : [ 0.290196, 0.309804, 0.301961, 1.0 ],
						"color1" : [ 0.165741, 0.364658, 0.14032, 0.74 ],
						"color2" : [ 0.290196, 0.309804, 0.301961, 1.0 ],
						"angle" : 270.0,
						"proportion" : 0.39,
						"autogradient" : 0
					}

				}
,
				"parentstyle" : "",
				"multi" : 0
			}
, 			{
				"name" : "messagegold",
				"default" : 				{
					"bgfillcolor" : 					{
						"type" : "gradient",
						"color" : [ 0.290196, 0.309804, 0.301961, 1.0 ],
						"color1" : [ 0.764706, 0.592157, 0.101961, 0.74 ],
						"color2" : [ 0.290196, 0.309804, 0.301961, 1.0 ],
						"angle" : 270.0,
						"proportion" : 0.39,
						"autogradient" : 0
					}

				}
,
				"parentstyle" : "",
				"multi" : 0
			}
, 			{
				"name" : "newobjBlue-1",
				"default" : 				{
					"accentcolor" : [ 0.317647, 0.654902, 0.976471, 1.0 ]
				}
,
				"parentstyle" : "",
				"multi" : 0
			}
, 			{
				"name" : "newobjYellow-1",
				"default" : 				{
					"accentcolor" : [ 0.82517, 0.78181, 0.059545, 1.0 ],
					"fontsize" : [ 12.059008 ]
				}
,
				"parentstyle" : "",
				"multi" : 0
			}
, 			{
				"name" : "style test",
				"default" : 				{
					"bgfillcolor" : 					{
						"type" : "gradient",
						"color1" : [ 0.0, 0.992156862745098, 0.992156862745098, 0.11 ],
						"color2" : [ 0.996078431372549, 0.717647058823529, 0.717647058823529, 1.0 ],
						"color" : [ 0.2, 0.2, 0.2, 1 ],
						"angle" : 270.0,
						"proportion" : 0.5
					}
,
					"color" : [ 0.996078431372549, 0.996078431372549, 0.996078431372549, 0.0 ]
				}
,
				"parentstyle" : "",
				"multi" : 0
			}
, 			{
				"name" : "tap-dark",
				"default" : 				{
					"textcolor" : [ 0.847058823529412, 0.847058823529412, 0.847058823529412, 1.0 ],
					"editing_bgcolor" : [ 0.133333, 0.133333, 0.133333, 1.0 ],
					"fontname" : [ "Ableton Sans Light Regular" ],
					"locked_bgcolor" : [ 0.133333, 0.133333, 0.133333, 1.0 ]
				}
,
				"parentstyle" : "",
				"multi" : 0
			}
 ]
	}

}
